<svg xmlns="http://www.w3.org/2000/svg" width="24" height="24" viewBox="0 0 24 24">
  <g id="Group_3" data-name="Group 3" transform="translate(-1361 -1887)">
    <g id="Group_1" data-name="Group 1">
      <path id="iconmonstr-instagram-11" d="M12,2.163c3.2,0,3.584.012,4.85.07,3.252.148,4.771,1.691,4.919,4.919.058,1.265.069,1.645.069,4.849s-.012,3.584-.069,4.849c-.149,3.225-1.664,4.771-4.919,4.919-1.266.058-1.644.07-4.85.07s-3.584-.012-4.849-.07c-3.26-.149-4.771-1.7-4.919-4.92-.058-1.265-.07-1.644-.07-4.849s.013-3.583.07-4.849C2.381,3.924,3.9,2.38,7.151,2.232,8.417,2.175,8.8,2.163,12,2.163ZM12,0C8.741,0,8.333.014,7.053.072,2.7.272.273,2.69.073,7.052.014,8.333,0,8.741,0,12s.014,3.668.072,4.948c.2,4.358,2.618,6.78,6.98,6.98C8.333,23.986,8.741,24,12,24s3.668-.014,4.948-.072c4.354-.2,6.782-2.618,6.979-6.98C23.986,15.668,24,15.259,24,12s-.014-3.667-.072-4.947c-.2-4.354-2.617-6.78-6.979-6.98C15.668.014,15.259,0,12,0Zm0,5.838A6.163,6.163,0,1,0,18.162,12,6.162,6.162,0,0,0,12,5.838ZM12,16a4,4,0,1,1,4-4A4,4,0,0,1,12,16ZM18.406,4.155a1.44,1.44,0,1,0,1.439,1.44A1.441,1.441,0,0,0,18.406,4.155Z" transform="translate(1361 1887)" fill="#06badc"/>
      <g id="Path_1" data-name="Path 1" transform="translate(1363 1889)" fill="none">
        <path d="M5,0H15a5,5,0,0,1,5,5V15a5,5,0,0,1-5,5H5a5,5,0,0,1-5-5V5A5.55,5.55,0,0,1,.237,3.474,4.908,4.908,0,0,1,5,0Z" stroke="none"/>
        <path d="M 5 0 C 2.661069869995117 0 0.6972408294677734 1.60597038269043 0.2371006011962891 3.474149703979492 C 0.05240058898925781 4.167240142822266 0 4.577500343322754 0 5 L 0 15 C 0 17.76141929626465 2.238580703735352 20 5 20 L 15 20 C 17.76141929626465 20 20 17.76141929626465 20 15 L 20 5 C 20 2.238580703735352 17.76141929626465 0 15 0 L 5 0 M 5 -2 L 15 -2 C 18.85980987548828 -2 22 1.140190124511719 22 5 L 22 15 C 22 18.85980987548828 18.85980987548828 22 15 22 L 5 22 C 1.140190124511719 22 -2 18.85980987548828 -2 15 L -2 5 C -2 4.366461753845215 -1.91297721862793 3.778936386108398 -1.699855804443359 2.975681304931641 C -1.358394622802734 1.610866546630859 -0.5036907196044922 0.3561172485351562 0.70867919921875 -0.5594902038574219 C 1.938699722290039 -1.488420486450195 3.46272087097168 -2 5 -2 Z" stroke="none" fill="#06badc"/>
      </g>
    </g>
  </g>
</svg>
