<svg xmlns="http://www.w3.org/2000/svg" width="24" height="24" viewBox="0 0 24 24">
  <path id="iconmonstr-whatsapp-3" d="M12.036,5.339A6.6,6.6,0,0,0,6.607,15.684l-.666,2.432,2.494-.654a6.594,6.594,0,1,0,3.6-12.123Zm3.876,9.423a2.041,2.041,0,0,1-1.337.942,2.727,2.727,0,0,1-1.248-.078,11.238,11.238,0,0,1-1.129-.417,8.833,8.833,0,0,1-3.384-2.991,3.852,3.852,0,0,1-.809-2.049A2.227,2.227,0,0,1,8.7,8.516a.725.725,0,0,1,.528-.25l.38.007c.122.006.285-.046.446.34s.561,1.372.611,1.471a.364.364,0,0,1,.016.347,1.34,1.34,0,0,1-.2.33l-.3.347c-.1.1-.2.206-.087.4a5.981,5.981,0,0,0,1.1,1.372,5.407,5.407,0,0,0,1.593.983c.2.1.314.083.429-.05s.495-.578.627-.777.264-.165.446-.1,1.156.545,1.354.645.33.149.38.231a1.673,1.673,0,0,1-.116.945ZM19,0H5A5,5,0,0,0,0,5V19a5,5,0,0,0,5,5H19a5,5,0,0,0,5-5V5a5,5,0,0,0-5-5ZM12.033,19.862A7.924,7.924,0,0,1,8.241,18.9L4.038,20l1.125-4.108a7.929,7.929,0,1,1,6.87,3.97Z"/>
</svg>
